Coordinates
version=1
nRows=33
nColumns=24
inDegrees=yes

Units are S.I. units (second, meters, Newtons, ...)
If the header above contains a line with 'inDegrees', this indicates whether rotational values are in degrees (yes) or radians (no).

endheader
time	pelvis_tilt	pelvis_list	pelvis_rotation	pelvis_tx	pelvis_ty	pelvis_tz	hip_flexion_r	hip_adduction_r	hip_rotation_r	knee_angle_r	ankle_angle_r	subtalar_angle_r	mtp_angle_r	hip_flexion_l	hip_adduction_l	hip_rotation_l	knee_angle_l	ankle_angle_l	subtalar_angle_l	mtp_angle_l	lumbar_extension	lumbar_bending	lumbar_rotation
7.900000	10.046978	2.499784	-180.056115	0.258598	0.783228	-1.217089	36.889284	-18.900609	-27.258704	-51.417948	17.613781	11.481052	0.000000	38.837544	-24.849847	-21.230683	-51.405880	16.579169	14.482093	0.000000	-4.746470	1.335471	2.885560
7.905000	10.051495	2.476126	-180.072009	0.257704	0.786331	-1.216903	36.324285	-18.680739	-27.433620	-50.362041	17.095282	11.459615	0.000000	38.223750	-24.602031	-21.472598	-50.393832	16.124642	14.383848	0.000000	-4.604046	1.328048	2.828175
7.910000	10.052985	2.440321	-180.089607	0.256809	0.789350	-1.216703	35.756891	-18.461894	-27.560527	-49.294159	16.611390	11.463338	0.000000	37.602337	-24.339408	-21.722809	-49.383360	15.682874	14.269869	0.000000	-4.466958	1.306414	2.776211
7.915000	10.127934	2.435834	-180.163921	0.255890	0.792264	-1.216441	35.276831	-18.193041	-27.677812	-48.213417	16.084794	11.458960	0.000000	37.048015	-24.131519	-21.994561	-48.383376	15.246585	14.168852	0.000000	-4.234954	1.350650	2.750309
7.920000	10.083919	2.402717	-180.178075	0.254993	0.795221	-1.216212	34.678204	-17.979659	-27.817991	-47.173613	15.600334	11.404257	0.000000	36.388304	-23.864028	-22.221187	-47.369623	14.802362	14.061827	0.000000	-4.150842	1.336398	2.705787
7.925000	10.142841	2.409672	-180.270505	0.254049	0.798051	-1.215892	34.201313	-17.704776	-27.936590	-46.128695	15.081404	11.395287	0.000000	35.821165	-23.651787	-22.456840	-46.367030	14.340888	13.898584	0.000000	-3.945440	1.396779	2.716569
7.930000	10.168474	2.387248	-180.329692	0.253086	0.800807	-1.215617	33.685573	-17.454220	-28.023980	-45.079178	14.572536	11.340356	0.000000	35.232206	-23.401616	-22.671736	-45.370874	13.899233	13.745123	0.000000	-3.768254	1.403158	2.723647
7.935000	10.127471	2.352394	-180.361527	0.252113	0.803572	-1.215440	33.087591	-17.216303	-28.119232	-44.021598	14.078825	11.280836	0.000000	34.580715	-23.138768	-22.895951	-44.380779	13.464304	13.592307	0.000000	-3.670966	1.390935	2.639842
7.940000	10.135087	2.329449	-180.406913	0.251173	0.806217	-1.215237	32.541618	-16.972650	-28.235620	-42.958638	13.571697	11.274228	0.000000	33.988130	-22.879522	-23.088852	-43.391139	13.033702	13.409172	0.000000	-3.517071	1.381442	2.628060
7.945000	10.107082	2.313220	-180.429377	0.250276	0.808786	-1.215151	31.972783	-16.711867	-28.316658	-41.919670	13.117863	11.209238	0.000000	33.390660	-22.627257	-23.241304	-42.422042	12.595227	13.232075	0.000000	-3.414100	1.371110	2.549503
7.950000	10.201044	2.336519	-180.525732	0.249310	0.811258	-1.214936	31.536728	-16.410643	-28.418676	-40.873028	12.570426	11.236217	0.000000	32.893827	-22.440411	-23.451088	-41.450762	12.148331	13.087087	0.000000	-3.154409	1.430117	2.592402
7.955000	10.078628	2.219915	-180.547276	0.248024	0.813963	-1.214118	30.849429	-16.332506	-28.528163	-39.840420	12.096699	11.239351	0.000000	32.118303	-22.001522	-23.608625	-40.438050	11.767722	12.763547	0.000000	-3.110770	1.415489	2.509606
7.960000	10.036629	2.179142	-180.574804	0.247111	0.816369	-1.213975	30.281032	-16.111855	-28.599840	-38.830326	11.651231	11.212204	0.000000	31.510993	-21.710788	-23.729078	-39.481452	11.314103	12.507667	0.000000	-3.024450	1.382530	2.469537
7.965000	10.047399	2.163290	-180.635942	0.246169	0.818686	-1.213809	29.761723	-15.853019	-28.662752	-37.795702	11.161620	11.205708	0.000000	30.950406	-21.446101	-23.836389	-38.515600	10.880655	12.232773	0.000000	-2.866656	1.397404	2.420424
7.970000	10.106359	2.155802	-180.713156	0.245164	0.820895	-1.213507	29.287379	-15.563671	-28.651408	-36.721386	10.659923	11.123862	0.000000	30.439357	-21.195073	-23.971524	-37.565873	10.481598	11.997878	0.000000	-2.651892	1.433047	2.426067
7.975000	10.111025	2.152096	-180.779719	0.244162	0.823062	-1.213318	28.776392	-15.291466	-28.724681	-35.713300	10.193757	10.972723	0.000000	29.885744	-20.943921	-24.064253	-36.619334	10.062222	11.694476	0.000000	-2.502947	1.449753	2.408434
7.980000	10.119099	2.170736	-180.845214	0.243141	0.825156	-1.213138	28.271663	-15.000511	-28.781772	-34.718182	9.738098	10.869906	0.000000	29.355303	-20.723855	-24.140885	-35.705587	9.646931	11.397703	0.000000	-2.349475	1.495348	2.381463
7.985000	10.066484	2.160704	-180.869323	0.242204	0.827220	-1.213030	27.709698	-14.749853	-28.877301	-33.739291	9.283160	10.705675	0.000000	28.775707	-20.469438	-24.208620	-34.781986	9.236959	11.141260	0.000000	-2.270815	1.483564	2.357226
7.990000	10.155397	2.185096	-180.962777	0.241232	0.829059	-1.212829	27.282843	-14.417730	-28.824979	-32.684071	8.785604	10.559780	0.000000	28.338052	-20.261767	-24.281138	-33.893489	8.854113	10.823150	0.000000	-2.022488	1.559608	2.358508
7.995000	10.119581	2.125275	-180.963705	0.240353	0.830896	-1.212728	26.751215	-14.234631	-28.905895	-31.731277	8.317910	10.411236	0.000000	27.796659	-19.951096	-24.339056	-33.004645	8.457553	10.560789	0.000000	-1.930206	1.493946	2.279945
8.000000	10.179720	2.120963	-181.041444	0.239376	0.832624	-1.212447	26.325934	-13.967832	-28.912470	-30.749977	7.834019	10.252728	0.000000	27.338602	-19.721180	-24.452864	-32.138351	8.085294	10.281931	0.000000	-1.719188	1.541341	2.277079
8.005000	10.163436	2.106101	-181.092121	0.238493	0.834283	-1.212373	25.848606	-13.725858	-28.950316	-29.843089	7.409087	10.098259	0.000000	26.818468	-19.478704	-24.508154	-31.262518	7.694969	9.973584	0.000000	-1.613650	1.536364	2.245462
8.010000	10.186268	2.129923	-181.163213	0.237595	0.835853	-1.212199	25.407864	-13.446772	-28.988807	-28.923610	6.986011	9.973224	0.000000	26.354025	-19.280507	-24.552769	-30.423611	7.319278	9.651559	0.000000	-1.462164	1.589949	2.250898
8.015000	10.266660	2.129463	-181.256666	0.236631	0.837257	-1.211953	25.026955	-13.183853	-28.971050	-27.982568	6.546603	9.861103	0.000000	25.956537	-19.084420	-24.674757	-29.643681	6.995533	9.404095	0.000000	-1.227079	1.633968	2.279946
8.020000	10.256141	2.102808	-181.287667	0.235738	0.838670	-1.211836	24.559860	-12.968545	-28.988468	-27.086739	6.136001	9.701881	0.000000	25.482328	-18.839617	-24.734859	-28.841407	6.664015	9.134672	0.000000	-1.107473	1.615866	2.235748
8.025000	10.319039	2.072047	-181.330151	0.234898	0.839862	-1.211725	24.200367	-12.784635	-29.139042	-26.239566	5.750634	9.626321	0.000000	25.109366	-18.622639	-24.859763	-28.099385	6.363219	8.964349	0.000000	-0.905972	1.597144	2.207665
8.030000	10.260759	2.055713	-181.363141	0.233995	0.841192	-1.211588	23.702986	-12.565309	-29.170382	-25.385610	5.420072	9.432724	0.000000	24.612145	-18.394015	-24.888579	-27.353438	6.084346	8.660319	0.000000	-0.840147	1.584755	2.200458
8.035000	10.318898	2.051258	-181.400644	0.233320	0.842270	-1.211589	23.399115	-12.372833	-29.271679	-24.667376	5.045201	9.352148	0.000000	24.267664	-18.223041	-25.008704	-26.632094	5.742818	8.497304	0.000000	-0.663245	1.585411	2.169874
8.040000	10.297057	2.042371	-181.467252	0.232483	0.843319	-1.211419	22.979182	-12.149539	-29.197028	-23.861782	4.768716	9.176366	0.000000	23.831813	-18.021905	-25.030589	-25.944075	5.492699	8.155578	0.000000	-0.562885	1.603699	2.218455
8.045000	10.369674	2.026045	-181.542050	0.231601	0.844166	-1.211239	22.690295	-11.981875	-29.271724	-23.153185	4.402704	9.164595	0.000000	23.495041	-17.852281	-25.192431	-25.281580	5.235983	8.013397	0.000000	-0.331077	1.624112	2.219354
8.050000	10.383759	1.986142	-181.575266	0.230843	0.844990	-1.211108	22.335710	-11.836451	-29.271076	-22.427692	4.127304	9.141088	0.000000	23.142720	-17.656703	-25.325776	-24.691447	4.988976	7.851530	0.000000	-0.192251	1.595868	2.218059
8.055000	10.363445	1.962932	-181.607184	0.230028	0.845781	-1.210966	21.965164	-11.692021	-29.330494	-21.767461	3.886354	9.088364	0.000000	22.753119	-17.471754	-25.398638	-24.081398	4.809037	7.662297	0.000000	-0.090659	1.593003	2.193196
8.060000	10.428258	1.961892	-181.648863	0.229357	0.846438	-1.210846	21.718757	-11.530772	-29.375832	-21.154156	3.647459	9.053932	0.000000	22.474874	-17.338432	-25.524590	-23.484506	4.606414	7.589811	0.000000	0.100799	1.610533	2.200208
